<svg width="16" height="21" viewBox="0 0 16 21" fill="none" xmlns="http://www.w3.org/2000/svg">
<path d="M5.75 0C5.55109 0 5.36032 0.0790175 5.21967 0.21967C5.07902 0.360322 5 0.551088 5 0.75V1.5H0.75C0.551088 1.5 0.360322 1.57902 0.21967 1.71967C0.0790175 1.86032 0 2.05109 0 2.25C0 2.44891 0.0790175 2.63968 0.21967 2.78033C0.360322 2.92098 0.551088 3 0.75 3H14.75C14.9489 3 15.1397 2.92098 15.2803 2.78033C15.421 2.63968 15.5 2.44891 15.5 2.25C15.5 2.05109 15.421 1.86032 15.2803 1.71967C15.1397 1.57902 14.9489 1.5 14.75 1.5H10.5V0.75C10.5 0.551088 10.421 0.360322 10.2803 0.21967C10.1397 0.0790175 9.94891 0 9.75 0H5.75ZM5.75 8.4C5.94891 8.4 6.13968 8.47902 6.28033 8.61967C6.42098 8.76032 6.5 8.95109 6.5 9.15V16.15C6.5 16.3489 6.42098 16.5397 6.28033 16.6803C6.13968 16.821 5.94891 16.9 5.75 16.9C5.55109 16.9 5.36032 16.821 5.21967 16.6803C5.07902 16.5397 5 16.3489 5 16.15V9.15C5 8.95109 5.07902 8.76032 5.21967 8.61967C5.36032 8.47902 5.55109 8.4 5.75 8.4ZM10.5 9.15C10.5 8.95109 10.421 8.76032 10.2803 8.61967C10.1397 8.47902 9.94891 8.4 9.75 8.4C9.55109 8.4 9.36032 8.47902 9.21967 8.61967C9.07902 8.76032 9 8.95109 9 9.15V16.15C9 16.3489 9.07902 16.5397 9.21967 16.6803C9.36032 16.821 9.55109 16.9 9.75 16.9C9.94891 16.9 10.1397 16.821 10.2803 16.6803C10.421 16.5397 10.5 16.3489 10.5 16.15V9.15Z" fill="#81868A"/>
<path fill-rule="evenodd" clip-rule="evenodd" d="M1.741 5.667C1.76143 5.48349 1.84885 5.31396 1.98649 5.19089C2.12414 5.06782 2.30235 4.99985 2.487 5H13.013C13.1976 4.99985 13.3759 5.06782 13.5135 5.19089C13.6512 5.31396 13.7386 5.48349 13.759 5.667L13.959 7.469C14.322 10.734 14.322 14.029 13.959 17.295L13.939 17.472C13.8689 18.102 13.591 18.6907 13.1492 19.1452C12.7074 19.5997 12.1267 19.8941 11.499 19.982C9.01179 20.3302 6.48821 20.3302 4.001 19.982C3.37325 19.8941 2.79264 19.5997 2.35081 19.1452C1.90898 18.6907 1.63109 18.102 1.561 17.472L1.541 17.295C1.17819 14.0297 1.17819 10.7343 1.541 7.469L1.741 5.667ZM3.158 6.5L3.032 7.634C2.68141 10.7893 2.68141 13.9737 3.032 17.129L3.052 17.306C3.08509 17.6049 3.2168 17.8842 3.42631 18.0999C3.63583 18.3155 3.91122 18.4553 4.209 18.497C6.559 18.826 8.942 18.826 11.291 18.497C11.5886 18.4553 11.8639 18.3157 12.0734 18.1002C12.2829 17.8848 12.4147 17.6057 12.448 17.307L12.468 17.129C12.818 13.974 12.818 10.789 12.468 7.634L12.342 6.5H3.158Z" fill="#81868A"/>
</svg>
